<mxfile host="app.diagrams.net" modified="2023-11-16T15:06:30.289Z" agent="Mozilla/5.0 (Windows NT 10.0; Win64; x64) AppleWebKit/537.36 (KHTML, like Gecko) Chrome/119.0.0.0 Safari/537.36" etag="RoBWbhR2TXdRiZkedBK5" version="22.1.2" type="github">
  <diagram name="Page-1" id="5f0bae14-7c28-e335-631c-24af17079c00">
    <mxGraphModel dx="880" dy="1412" grid="1" gridSize="10" guides="1" tooltips="1" connect="1" arrows="1" fold="1" page="1" pageScale="1" pageWidth="1100" pageHeight="850" background="none" math="0" shadow="0">
      <root>
        <mxCell id="0" />
        <mxCell id="1" parent="0" />
        <mxCell id="dgbfXcb8pHRknshTKZbp-7" value="" style="ellipse;whiteSpace=wrap;html=1;align=center;aspect=fixed;fillColor=none;strokeColor=none;resizable=1;perimeter=centerPerimeter;rotatable=1;allowArrows=0;points=[];outlineConnect=1;movable=1;deletable=1;editable=1;locked=0;connectable=1;" vertex="1" parent="1">
          <mxGeometry x="432.5" y="240" width="10" height="10" as="geometry" />
        </mxCell>
        <mxCell id="dgbfXcb8pHRknshTKZbp-10" value="" style="ellipse;whiteSpace=wrap;html=1;align=center;aspect=fixed;fillColor=none;strokeColor=none;resizable=1;perimeter=centerPerimeter;rotatable=1;allowArrows=0;points=[];outlineConnect=1;movable=1;deletable=1;editable=1;locked=0;connectable=1;" vertex="1" parent="1">
          <mxGeometry x="197.5" y="390" width="10" height="10" as="geometry" />
        </mxCell>
        <mxCell id="dgbfXcb8pHRknshTKZbp-12" value="" style="ellipse;whiteSpace=wrap;html=1;align=center;aspect=fixed;fillColor=none;strokeColor=none;resizable=1;perimeter=centerPerimeter;rotatable=1;allowArrows=0;points=[];outlineConnect=1;movable=1;deletable=1;editable=1;locked=0;connectable=1;" vertex="1" parent="1">
          <mxGeometry x="392.5" y="510" width="10" height="10" as="geometry" />
        </mxCell>
        <mxCell id="dgbfXcb8pHRknshTKZbp-14" value="" style="ellipse;whiteSpace=wrap;html=1;align=center;aspect=fixed;fillColor=none;strokeColor=none;resizable=1;perimeter=centerPerimeter;rotatable=1;allowArrows=0;points=[];outlineConnect=1;movable=1;deletable=1;editable=1;locked=0;connectable=1;" vertex="1" parent="1">
          <mxGeometry x="392.5" y="210" width="10" height="10" as="geometry" />
        </mxCell>
        <mxCell id="dgbfXcb8pHRknshTKZbp-16" value="" style="ellipse;whiteSpace=wrap;html=1;align=center;aspect=fixed;fillColor=none;strokeColor=none;resizable=1;perimeter=centerPerimeter;rotatable=1;allowArrows=0;points=[];outlineConnect=1;movable=1;deletable=1;editable=1;locked=0;connectable=1;" vertex="1" parent="1">
          <mxGeometry x="432.5" y="500" width="10" height="10" as="geometry" />
        </mxCell>
        <mxCell id="dgbfXcb8pHRknshTKZbp-64" value="" style="ellipse;whiteSpace=wrap;html=1;align=center;aspect=fixed;fillColor=none;strokeColor=none;resizable=1;perimeter=centerPerimeter;rotatable=1;allowArrows=0;points=[];outlineConnect=1;movable=1;deletable=1;editable=1;locked=0;connectable=1;" vertex="1" parent="1">
          <mxGeometry x="620" y="390" width="10" height="10" as="geometry" />
        </mxCell>
        <mxCell id="dgbfXcb8pHRknshTKZbp-73" value="&amp;lt;&amp;lt;service&amp;gt;&amp;gt;&lt;br&gt;aspirante.service.js&lt;br&gt;" style="shape=module;align=left;spacingLeft=20;align=center;verticalAlign=top;whiteSpace=wrap;html=1;movable=1;resizable=1;rotatable=1;deletable=1;editable=1;locked=0;connectable=1;" vertex="1" parent="1">
          <mxGeometry x="450" y="-220" width="150" height="50" as="geometry" />
        </mxCell>
        <mxCell id="dgbfXcb8pHRknshTKZbp-71" value="&amp;lt;&amp;lt;interface&amp;gt;&amp;gt;&lt;br&gt;form.component.ts" style="shape=module;align=left;spacingLeft=20;align=center;verticalAlign=top;whiteSpace=wrap;html=1;movable=1;resizable=1;rotatable=1;deletable=1;editable=1;locked=0;connectable=1;" vertex="1" parent="1">
          <mxGeometry x="272.5" y="-120" width="170" height="50" as="geometry" />
        </mxCell>
        <mxCell id="dgbfXcb8pHRknshTKZbp-74" value="&amp;lt;&amp;lt;model&amp;gt;&amp;gt;&lt;br&gt;aspirante.ts" style="shape=module;align=left;spacingLeft=20;align=center;verticalAlign=top;whiteSpace=wrap;html=1;movable=1;resizable=1;rotatable=1;deletable=1;editable=1;locked=0;connectable=1;" vertex="1" parent="1">
          <mxGeometry x="280" y="-220" width="100" height="50" as="geometry" />
        </mxCell>
        <mxCell id="dgbfXcb8pHRknshTKZbp-66" value="&amp;lt;&amp;lt;interface&amp;gt;&amp;gt;&lt;br&gt;form.component.html&lt;br&gt;" style="shape=module;align=left;spacingLeft=20;align=center;verticalAlign=top;whiteSpace=wrap;html=1;movable=1;resizable=1;rotatable=1;deletable=1;editable=1;locked=0;connectable=1;" vertex="1" parent="1">
          <mxGeometry x="35" y="-120" width="170" height="50" as="geometry" />
        </mxCell>
        <mxCell id="dgbfXcb8pHRknshTKZbp-72" value="&amp;lt;&amp;lt;styles&amp;gt;&amp;gt;&lt;br&gt;form.component.css" style="shape=module;align=left;spacingLeft=20;align=center;verticalAlign=top;whiteSpace=wrap;html=1;movable=1;resizable=1;rotatable=1;deletable=1;editable=1;locked=0;connectable=1;" vertex="1" parent="1">
          <mxGeometry x="35" y="-220" width="170" height="50" as="geometry" />
        </mxCell>
        <mxCell id="dgbfXcb8pHRknshTKZbp-78" value="" style="rounded=0;orthogonalLoop=1;jettySize=auto;html=1;endArrow=halfCircle;endFill=0;endSize=6;strokeWidth=1;sketch=0;" edge="1" target="dgbfXcb8pHRknshTKZbp-80" parent="1" source="dgbfXcb8pHRknshTKZbp-66">
          <mxGeometry relative="1" as="geometry">
            <mxPoint x="248" y="-305" as="sourcePoint" />
          </mxGeometry>
        </mxCell>
        <mxCell id="dgbfXcb8pHRknshTKZbp-79" value="" style="rounded=0;orthogonalLoop=1;jettySize=auto;html=1;endArrow=oval;endFill=0;sketch=0;sourcePerimeterSpacing=0;targetPerimeterSpacing=0;endSize=10;" edge="1" target="dgbfXcb8pHRknshTKZbp-80" parent="1" source="dgbfXcb8pHRknshTKZbp-72">
          <mxGeometry relative="1" as="geometry">
            <mxPoint x="208" y="-305" as="sourcePoint" />
          </mxGeometry>
        </mxCell>
        <mxCell id="dgbfXcb8pHRknshTKZbp-80" value="" style="ellipse;whiteSpace=wrap;html=1;align=center;aspect=fixed;fillColor=none;strokeColor=none;resizable=0;perimeter=centerPerimeter;rotatable=0;allowArrows=0;points=[];outlineConnect=1;" vertex="1" parent="1">
          <mxGeometry x="115" y="-150" width="10" height="10" as="geometry" />
        </mxCell>
        <mxCell id="dgbfXcb8pHRknshTKZbp-84" value="" style="rounded=0;orthogonalLoop=1;jettySize=auto;html=1;endArrow=halfCircle;endFill=0;endSize=6;strokeWidth=1;sketch=0;" edge="1" target="dgbfXcb8pHRknshTKZbp-86" parent="1" source="dgbfXcb8pHRknshTKZbp-66">
          <mxGeometry relative="1" as="geometry">
            <mxPoint x="555" y="-4" as="sourcePoint" />
          </mxGeometry>
        </mxCell>
        <mxCell id="dgbfXcb8pHRknshTKZbp-85" value="" style="rounded=0;orthogonalLoop=1;jettySize=auto;html=1;endArrow=oval;endFill=0;sketch=0;sourcePerimeterSpacing=0;targetPerimeterSpacing=0;endSize=10;" edge="1" target="dgbfXcb8pHRknshTKZbp-86" parent="1" source="dgbfXcb8pHRknshTKZbp-71">
          <mxGeometry relative="1" as="geometry">
            <mxPoint x="515" y="-4" as="sourcePoint" />
          </mxGeometry>
        </mxCell>
        <mxCell id="dgbfXcb8pHRknshTKZbp-86" value="" style="ellipse;whiteSpace=wrap;html=1;align=center;aspect=fixed;fillColor=none;strokeColor=none;resizable=0;perimeter=centerPerimeter;rotatable=0;allowArrows=0;points=[];outlineConnect=1;" vertex="1" parent="1">
          <mxGeometry x="240" y="-100" width="10" height="10" as="geometry" />
        </mxCell>
        <mxCell id="dgbfXcb8pHRknshTKZbp-87" value="" style="rounded=0;orthogonalLoop=1;jettySize=auto;html=1;endArrow=halfCircle;endFill=0;endSize=6;strokeWidth=1;sketch=0;" edge="1" target="dgbfXcb8pHRknshTKZbp-89" parent="1" source="dgbfXcb8pHRknshTKZbp-71">
          <mxGeometry relative="1" as="geometry">
            <mxPoint x="670" y="-135" as="sourcePoint" />
          </mxGeometry>
        </mxCell>
        <mxCell id="dgbfXcb8pHRknshTKZbp-88" value="" style="rounded=0;orthogonalLoop=1;jettySize=auto;html=1;endArrow=oval;endFill=0;sketch=0;sourcePerimeterSpacing=0;targetPerimeterSpacing=0;endSize=10;" edge="1" target="dgbfXcb8pHRknshTKZbp-89" parent="1" source="dgbfXcb8pHRknshTKZbp-73">
          <mxGeometry relative="1" as="geometry">
            <mxPoint x="630" y="-135" as="sourcePoint" />
          </mxGeometry>
        </mxCell>
        <mxCell id="dgbfXcb8pHRknshTKZbp-89" value="" style="ellipse;whiteSpace=wrap;html=1;align=center;aspect=fixed;fillColor=none;strokeColor=none;resizable=0;perimeter=centerPerimeter;rotatable=0;allowArrows=0;points=[];outlineConnect=1;" vertex="1" parent="1">
          <mxGeometry x="520" y="-100" width="10" height="10" as="geometry" />
        </mxCell>
        <mxCell id="dgbfXcb8pHRknshTKZbp-90" value="" style="rounded=0;orthogonalLoop=1;jettySize=auto;html=1;endArrow=halfCircle;endFill=0;endSize=6;strokeWidth=1;sketch=0;exitX=1;exitY=0;exitDx=0;exitDy=0;edgeStyle=orthogonalEdgeStyle;" edge="1" target="dgbfXcb8pHRknshTKZbp-92" parent="1" source="dgbfXcb8pHRknshTKZbp-66">
          <mxGeometry relative="1" as="geometry">
            <mxPoint x="403" y="-295" as="sourcePoint" />
            <Array as="points">
              <mxPoint x="205" y="-140" />
              <mxPoint x="245" y="-140" />
            </Array>
          </mxGeometry>
        </mxCell>
        <mxCell id="dgbfXcb8pHRknshTKZbp-91" value="" style="rounded=0;orthogonalLoop=1;jettySize=auto;html=1;endArrow=oval;endFill=0;sketch=0;sourcePerimeterSpacing=0;targetPerimeterSpacing=0;endSize=10;edgeStyle=orthogonalEdgeStyle;" edge="1" target="dgbfXcb8pHRknshTKZbp-92" parent="1" source="dgbfXcb8pHRknshTKZbp-74">
          <mxGeometry relative="1" as="geometry">
            <mxPoint x="363" y="-295" as="sourcePoint" />
          </mxGeometry>
        </mxCell>
        <mxCell id="dgbfXcb8pHRknshTKZbp-92" value="" style="ellipse;whiteSpace=wrap;html=1;align=center;aspect=fixed;fillColor=none;strokeColor=none;resizable=0;perimeter=centerPerimeter;rotatable=0;allowArrows=0;points=[];outlineConnect=1;" vertex="1" parent="1">
          <mxGeometry x="240" y="-160" width="10" height="10" as="geometry" />
        </mxCell>
        <mxCell id="dgbfXcb8pHRknshTKZbp-93" value="" style="rounded=0;orthogonalLoop=1;jettySize=auto;html=1;endArrow=halfCircle;endFill=0;endSize=6;strokeWidth=1;sketch=0;" edge="1" target="dgbfXcb8pHRknshTKZbp-95" parent="1" source="dgbfXcb8pHRknshTKZbp-73">
          <mxGeometry relative="1" as="geometry">
            <mxPoint x="770" y="-334" as="sourcePoint" />
          </mxGeometry>
        </mxCell>
        <mxCell id="dgbfXcb8pHRknshTKZbp-94" value="" style="rounded=0;orthogonalLoop=1;jettySize=auto;html=1;endArrow=oval;endFill=0;sketch=0;sourcePerimeterSpacing=0;targetPerimeterSpacing=0;endSize=10;" edge="1" target="dgbfXcb8pHRknshTKZbp-95" parent="1" source="dgbfXcb8pHRknshTKZbp-74">
          <mxGeometry relative="1" as="geometry">
            <mxPoint x="730" y="-334" as="sourcePoint" />
          </mxGeometry>
        </mxCell>
        <mxCell id="dgbfXcb8pHRknshTKZbp-95" value="" style="ellipse;whiteSpace=wrap;html=1;align=center;aspect=fixed;fillColor=none;strokeColor=none;resizable=0;perimeter=centerPerimeter;rotatable=0;allowArrows=0;points=[];outlineConnect=1;" vertex="1" parent="1">
          <mxGeometry x="410" y="-200" width="10" height="10" as="geometry" />
        </mxCell>
        <mxCell id="dgbfXcb8pHRknshTKZbp-96" value="&amp;lt;&amp;lt;library&amp;gt;&amp;gt;&lt;br&gt;Bootstrap" style="shape=module;align=left;spacingLeft=20;align=center;verticalAlign=top;whiteSpace=wrap;html=1;movable=1;resizable=1;rotatable=1;deletable=1;editable=1;locked=0;connectable=1;" vertex="1" parent="1">
          <mxGeometry x="70" y="-290" width="100" height="50" as="geometry" />
        </mxCell>
        <mxCell id="dgbfXcb8pHRknshTKZbp-97" value="" style="endArrow=none;html=1;rounded=0;edgeStyle=orthogonalEdgeStyle;" edge="1" parent="1" source="dgbfXcb8pHRknshTKZbp-96">
          <mxGeometry width="50" height="50" relative="1" as="geometry">
            <mxPoint x="200" y="-300" as="sourcePoint" />
            <mxPoint x="245" y="-160" as="targetPoint" />
          </mxGeometry>
        </mxCell>
        <mxCell id="dgbfXcb8pHRknshTKZbp-98" value="&amp;lt;&amp;lt;Collection&amp;gt;&amp;gt;&lt;br&gt;aspirantes" style="shape=module;align=left;spacingLeft=20;align=center;verticalAlign=top;whiteSpace=wrap;html=1;" vertex="1" parent="1">
          <mxGeometry x="650" y="-220" width="120" height="50" as="geometry" />
        </mxCell>
        <mxCell id="dgbfXcb8pHRknshTKZbp-99" value="" style="rounded=0;orthogonalLoop=1;jettySize=auto;html=1;endArrow=halfCircle;endFill=0;endSize=6;strokeWidth=1;sketch=0;" edge="1" target="dgbfXcb8pHRknshTKZbp-101" parent="1" source="dgbfXcb8pHRknshTKZbp-98">
          <mxGeometry relative="1" as="geometry">
            <mxPoint x="660" y="-195" as="sourcePoint" />
          </mxGeometry>
        </mxCell>
        <mxCell id="dgbfXcb8pHRknshTKZbp-100" value="" style="rounded=0;orthogonalLoop=1;jettySize=auto;html=1;endArrow=oval;endFill=0;sketch=0;sourcePerimeterSpacing=0;targetPerimeterSpacing=0;endSize=10;" edge="1" target="dgbfXcb8pHRknshTKZbp-101" parent="1" source="dgbfXcb8pHRknshTKZbp-73">
          <mxGeometry relative="1" as="geometry">
            <mxPoint x="620" y="-195" as="sourcePoint" />
          </mxGeometry>
        </mxCell>
        <mxCell id="dgbfXcb8pHRknshTKZbp-101" value="" style="ellipse;whiteSpace=wrap;html=1;align=center;aspect=fixed;fillColor=none;strokeColor=none;resizable=0;perimeter=centerPerimeter;rotatable=0;allowArrows=0;points=[];outlineConnect=1;" vertex="1" parent="1">
          <mxGeometry x="620" y="-200" width="10" height="10" as="geometry" />
        </mxCell>
      </root>
    </mxGraphModel>
  </diagram>
</mxfile>
